<?xml version="1.0" standalone="no"?>
<!DOCTYPE svg PUBLIC "-//W3C//DTD SVG 20010904//EN"
 "http://www.w3.org/TR/2001/REC-SVG-20010904/DTD/svg10.dtd">
<svg version="1.0" xmlns="http://www.w3.org/2000/svg"
 width="260.000000pt" height="260.000000pt" viewBox="0 0 260.000000 260.000000"
 preserveAspectRatio="xMidYMid meet">
<metadata>
Created by potrace 1.11, written by Peter Selinger 2001-2013
</metadata>
<g transform="translate(0.000000,260.000000) scale(0.100000,-0.100000)"
fill="#000000" stroke="none">
<path d="M299 2576 c-107 -29 -199 -107 -251 -214 l-33 -67 0 -995 0 -995 31
-65 c39 -83 106 -150 192 -192 l67 -33 995 0 995 0 65 31 c83 39 155 111 194
194 l31 65 0 995 0 995 -31 65 c-39 83 -106 150 -192 192 l-67 33 -975 2
c-752 1 -985 -1 -1021 -11z m845 -1269 c93 -265 171 -488 174 -494 3 -10 -23
-13 -109 -13 l-114 0 -35 120 -35 120 -180 -2 -179 -3 -35 -117 -34 -118 -114
0 c-68 0 -113 4 -111 9 2 6 80 228 173 495 l170 486 130 0 130 0 169 -483z
m832 460 c69 -23 127 -67 149 -113 24 -49 31 -136 15 -192 -14 -55 -71 -118
-113 -128 l-32 -7 50 -22 c59 -26 88 -55 111 -110 19 -47 22 -142 5 -204 -17
-60 -90 -131 -167 -162 -55 -22 -75 -24 -306 -27 l-248 -4 0 497 0 497 243 -4
c187 -4 253 -9 293 -21z"/>
<path d="M788 1432 c-31 -103 -60 -195 -63 -204 -7 -17 3 -18 119 -18 69 0
126 3 126 6 0 8 -120 397 -123 401 -2 1 -28 -82 -59 -185z"/>
<path d="M1650 1511 l0 -111 83 0 c145 0 197 28 197 106 0 23 -3 50 -6 59 -12
32 -66 48 -171 53 l-103 5 0 -112z"/>
<path d="M1650 1101 l0 -131 88 0 c104 0 156 13 187 46 49 53 36 153 -25 188
-28 17 -57 22 -142 25 l-108 3 0 -131z"/>
</g>
</svg>
